<svg xmlns="http://www.w3.org/2000/svg" width="20" height="20" fill="#969494" viewBox="0 0 32 32"><path fill="#969494" d="M8.003 30a3.22 3.22 0 0 1-2.362-.97q-.975-.973-.974-2.36 0-1.389.973-2.362A3.22 3.22 0 0 1 8 23.333q.39 0 .816.114.426.113.792.304l3.387-4.214a4.12 4.12 0 0 1-1.082-3.624L6.931 14.27a3.4 3.4 0 0 1-1.21 1.256A3.2 3.2 0 0 1 4 16q-1.39 0-2.36-.97-.973-.973-.973-2.36 0-1.389.972-2.362a3.21 3.21 0 0 1 2.357-.975q1.385 0 2.361.974.975.97.975 2.36 0 .17-.013.261a1.3 1.3 0 0 0-.014.185l4.958 1.728a4.4 4.4 0 0 1 1.245-1.469 4.16 4.16 0 0 1 1.901-.81V7.276q-1.275-.24-2.009-1.186a3.34 3.34 0 0 1-.733-2.102q0-1.373.972-2.348.97-.975 2.358-.974 1.389 0 2.362.973.972.974.974 2.36 0 1.145-.738 2.09-.739.947-2.006 1.187v5.283q1.094.183 1.89.81.796.63 1.257 1.47l4.956-1.728a1 1 0 0 1-.025-.197v-.248q0-1.39.972-2.36.97-.975 2.358-.974 1.389 0 2.362.972.972.972.974 2.359t-.973 2.361Q29.39 16 28 16a3.24 3.24 0 0 1-1.72-.475 3.35 3.35 0 0 1-1.21-1.256l-4.983 1.644q.174.968-.09 1.904a4 4 0 0 1-.992 1.696l3.387 4.204q.366-.166.792-.274.426-.11.815-.11 1.389 0 2.362.972.974.973.972 2.359a3.23 3.23 0 0 1-.97 2.361q-.97.975-2.36.975-1.391 0-2.362-.973-.974-.97-.974-2.36 0-.595.19-1.146t.635-1.024l-3.387-4.264q-.905.587-2.096.587-1.19 0-2.122-.587l-3.379 4.264q.417.475.621 1.024.204.55.204 1.146 0 1.39-.97 2.36Q9.39 30 8.003 30M4 14.667q.823 0 1.412-.588.59-.588.588-1.412 0-.825-.588-1.412A1.92 1.92 0 0 0 4 10.667q-.825 0-1.412.588A1.93 1.93 0 0 0 2 12.667q0 .824.588 1.412.59.588 1.412.588m4 14q.823 0 1.412-.588.59-.588.588-1.412 0-.825-.588-1.412A1.92 1.92 0 0 0 8 24.667q-.824 0-1.412.588A1.93 1.93 0 0 0 6 26.667q0 .824.588 1.412.59.588 1.412.588M16 6q.823 0 1.412-.588A1.92 1.92 0 0 0 18 4q0-.824-.588-1.412A1.92 1.92 0 0 0 16 2q-.825 0-1.412.588A1.93 1.93 0 0 0 14 4q0 .824.588 1.412Q15.178 6 16 6m0 13.487q1.17 0 1.995-.826.825-.825.826-1.994t-.826-1.995A2.73 2.73 0 0 0 16 13.845q-1.167 0-1.995.827a2.71 2.71 0 0 0-.826 1.995q0 1.166.826 1.994.825.828 1.995.827m8 9.179q.823 0 1.412-.588A1.92 1.92 0 0 0 26 26.667q0-.825-.588-1.412A1.92 1.92 0 0 0 24 24.667q-.825 0-1.412.588A1.93 1.93 0 0 0 22 26.667q0 .824.588 1.412.589.588 1.412.588m4-14q.823 0 1.412-.588A1.92 1.92 0 0 0 30 12.667q0-.825-.588-1.412A1.92 1.92 0 0 0 28 10.667q-.825 0-1.412.588A1.93 1.93 0 0 0 26 12.667q0 .824.588 1.412.589.588 1.412.588"></path></svg>