<svg width="69" height="20" viewBox="0 0 69 20" fill="none" xmlns="http://www.w3.org/2000/svg">
<path d="M10.3872 19.9999C9.82251 19.9999 9.24877 19.8877 8.69311 19.6578C7.03523 18.9718 6.00536 17.4298 6.00536 15.6361V9.00808H0V6.00536H6.00536V-5.34058e-05H9.00806V6.00536H15.636C17.4297 6.00536 18.9717 7.03523 19.6577 8.69315C20.3437 10.3511 19.9834 12.1683 18.7129 13.437L13.437 18.7131C12.5935 19.5565 11.5076 19.9999 10.3854 19.9999H10.3872ZM9.00806 9.00808V15.6361C9.00806 16.4741 9.64696 16.8035 9.84243 16.8832C10.0379 16.9646 10.7221 17.1818 11.3139 16.59L16.5899 11.314C17.1817 10.7221 16.9645 10.0379 16.8831 9.84247C16.8016 9.64699 16.4722 9.00808 15.636 9.00808H9.00806Z" fill="#E5FF7E"/>
<path d="M65.1171 15.7344V9.14056H64.2559V7.6718H65.1171V5.57803H66.808V7.6718H69V9.14056H66.808V14.25H68.7652V15.7344H65.1171Z" fill="#E5FF7E"/>
<path d="M62.5835 14.3906C61.7797 15.4531 60.6785 15.9844 59.2798 15.9844C58.0273 15.9844 56.9939 15.5781 56.1798 14.7656C55.376 13.9531 54.9742 12.9323 54.9742 11.7031C54.9742 10.4635 55.376 9.44265 56.1798 8.64056C56.9835 7.82805 58.0064 7.4218 59.2485 7.4218C60.4176 7.4218 61.3727 7.82805 62.1138 8.64056C62.8549 9.44265 63.2254 10.4635 63.2254 11.7031C63.2254 11.9531 63.2097 12.1562 63.1784 12.3125H56.7434C56.8582 12.9791 57.1401 13.5052 57.5889 13.8906C58.0377 14.276 58.6066 14.4687 59.2955 14.4687C60.2558 14.4687 61.023 14.1041 61.5971 13.375L62.5835 14.3906ZM59.2172 8.90619C58.5596 8.90619 58.0116 9.1041 57.5732 9.49994C57.1348 9.89578 56.8582 10.427 56.7434 11.0937H61.5501C61.4875 10.4479 61.2422 9.92182 60.8142 9.51557C60.3967 9.10931 59.8644 8.90619 59.2172 8.90619Z" fill="#E5FF7E"/>
<path d="M53.5893 15.8437C52.629 15.8437 51.8879 15.5937 51.366 15.0937C50.8441 14.5833 50.5831 13.8594 50.5831 12.9218V4.01552H52.2741V12.7343C52.2741 13.2552 52.415 13.651 52.6968 13.9219C52.9787 14.1823 53.3701 14.3125 53.8711 14.3125C53.9859 14.3125 54.1581 14.2917 54.3878 14.25V15.7344C54.1686 15.8073 53.9024 15.8437 53.5893 15.8437Z" fill="#E5FF7E"/>
<path d="M45.6303 15.7344V4.01552H47.3212V14.25H49.341V15.7344H45.6303Z" fill="#E5FF7E"/>
<path d="M43.3093 15.7344H36.655V7.6718H38.346V14.25H41.6183V7.6718H43.3093V15.7344Z" fill="#E5FF7E"/>
<path d="M34.8994 11.7031C34.8994 12.9635 34.5236 13.9948 33.7721 14.7969C33.0205 15.5885 32.0446 15.9844 30.8442 15.9844C30.1866 15.9844 29.5917 15.8542 29.0593 15.5937C28.527 15.3229 28.1356 14.9531 27.8851 14.4844H27.8381C27.859 14.7552 27.8694 15.026 27.8694 15.2969V15.7344H26.3037V4.01552H27.9947V8.01555C27.9947 8.36972 27.979 8.63535 27.9477 8.81244H27.9947C28.2347 8.39577 28.6105 8.06243 29.122 7.81243C29.6334 7.55201 30.1919 7.4218 30.7973 7.4218C32.0081 7.4218 32.9945 7.82284 33.7564 8.62493C34.5184 9.42702 34.8994 10.4531 34.8994 11.7031ZM28.6679 13.6875C29.1585 14.2083 29.7848 14.4687 30.5467 14.4687C31.3087 14.4687 31.9402 14.2083 32.4412 13.6875C32.9423 13.1562 33.1928 12.4896 33.1928 11.6875C33.1928 10.875 32.9423 10.2083 32.4412 9.68744C31.9402 9.16661 31.3087 8.90619 30.5467 8.90619C29.7848 8.90619 29.1585 9.16661 28.6679 9.68744C28.1773 10.2083 27.932 10.875 27.932 11.6875C27.932 12.5 28.1773 13.1666 28.6679 13.6875Z" fill="#E5FF7E"/>
</svg>
